{
    "streams": [
        {
            "index": 0,
            "codec_type": "data",
            "codec_tag_string": "mett",
            "codec_tag": "0x7474656d",
            "r_frame_rate": "0/0",
            "avg_frame_rate": "0/0",
            "time_base": "1/90000",
            "start_pts": 0,
            "start_time": "0.000000",
            "duration_ts": 293868,
            "duration": "3.265200",
            "bit_rate": "25172",
            "nb_frames": "98",
            "disposition": {
                "default": 1,
                "dub": 0,
                "original": 0,
                "comment": 0,
                "lyrics": 0,
                "karaoke": 0,
                "forced": 0,
                "hearing_impaired": 0,
                "visual_impaired": 0,
                "clean_effects": 0,
                "attached_pic": 0,
                "timed_thumbnails": 0
            },
            "tags": {
                "creation_time": "2022-04-09T18:35:56.000000Z",
                "language": "eng",
                "handler_name": "MetaHandle"
            }
        },
        {
            "index": 1,
            "codec_name": "aac",
            "codec_long_name": "AAC (Advanced Audio Coding)",
            "profile": "LC",
            "codec_type": "audio",
            "codec_time_base": "1/48000",
            "codec_tag_string": "mp4a",
            "codec_tag": "0x6134706d",
            "sample_fmt": "fltp",
            "sample_rate": "48000",
            "channels": 2,
            "channel_layout": "stereo",
            "bits_per_sample": 0,
            "r_frame_rate": "0/0",
            "avg_frame_rate": "0/0",
            "time_base": "1/48000",
            "start_pts": 0,
            "start_time": "0.000000",
            "duration_ts": 155346,
            "duration": "3.236375",
            "bit_rate": "191883",
            "max_bit_rate": "192000",
            "nb_frames": "151",
            "disposition": {
                "default": 1,
                "dub": 0,
                "original": 0,
                "comment": 0,
                "lyrics": 0,
                "karaoke": 0,
                "forced": 0,
                "hearing_impaired": 0,
                "visual_impaired": 0,
                "clean_effects": 0,
                "attached_pic": 0,
                "timed_thumbnails": 0
            },
            "tags": {
                "creation_time": "2022-04-09T18:35:56.000000Z",
                "language": "eng",
                "handler_name": "SoundHandle"
            }
        },
        {
            "index": 2,
            "codec_name": "hevc",
            "codec_long_name": "H.265 / HEVC (High Efficiency Video Coding)",
            "profile": "Main",
            "codec_type": "video",
            "codec_time_base": "293869/8820000",
            "codec_tag_string": "hvc1",
            "codec_tag": "0x31637668",
            "width": 1920,
            "height": 1080,
            "coded_width": 1920,
            "coded_height": 1088,
            "has_b_frames": 0,
            "sample_aspect_ratio": "1:1",
            "display_aspect_ratio": "16:9",
            "pix_fmt": "yuvj420p",
            "level": 153,
            "color_range": "pc",
            "color_space": "bt709",
            "color_transfer": "bt709",
            "color_primaries": "bt709",
            "refs": 1,
            "r_frame_rate": "30/1",
            "avg_frame_rate": "8820000/293869",
            "time_base": "1/90000",
            "start_pts": 0,
            "start_time": "0.000000",
            "duration_ts": 293869,
            "duration": "3.265211",
            "bit_rate": "19726643",
            "nb_frames": "98",
            "disposition": {
                "default": 1,
                "dub": 0,
                "original": 0,
                "comment": 0,
                "lyrics": 0,
                "karaoke": 0,
                "forced": 0,
                "hearing_impaired": 0,
                "visual_impaired": 0,
                "clean_effects": 0,
                "attached_pic": 0,
                "timed_thumbnails": 0
            },
            "tags": {
                "creation_time": "2022-04-09T18:35:56.000000Z",
                "language": "eng",
                "handler_name": "VideoHandle"
            }
        },
        {
            "index": 3,
            "codec_type": "data",
            "codec_tag_string": "mett",
            "codec_tag": "0x7474656d",
            "r_frame_rate": "0/0",
            "avg_frame_rate": "0/0",
            "time_base": "1/90000",
            "start_pts": 0,
            "start_time": "0.000000",
            "duration_ts": 293868,
            "duration": "3.265200",
            "nb_frames": "1",
            "disposition": {
                "default": 1,
                "dub": 0,
                "original": 0,
                "comment": 0,
                "lyrics": 0,
                "karaoke": 0,
                "forced": 0,
                "hearing_impaired": 0,
                "visual_impaired": 0,
                "clean_effects": 0,
                "attached_pic": 0,
                "timed_thumbnails": 0
            },
            "tags": {
                "creation_time": "2022-04-09T18:35:56.000000Z",
                "language": "eng",
                "handler_name": "MetaHandle"
            }
        }
    ],
    "format": {
        "filename": "tests/lib/data/media/ru-RU.mp4",
        "nb_streams": 4,
        "nb_programs": 0,
        "format_name": "mov,mp4,m4a,3gp,3g2,mj2",
        "format_long_name": "QuickTime / MOV",
        "start_time": "0.000000",
        "duration": "3.265200",
        "size": "8144750",
        "bit_rate": "19955286",
        "probe_score": 100,
        "tags": {
            "major_brand": "isom",
            "minor_version": "131072",
            "compatible_brands": "isomiso2mp41",
            "creation_time": "2022-04-09T18:35:56.000000Z",
            "location": "+40.7437-73.9585/",
            "location-eng": "+40.7437-73.9585/",
            "com.android.capture.fps": "30.000000"
        }
    }
}